<svg width="50" height="15" viewBox="0 0 50 15" fill="none" xmlns="http://www.w3.org/2000/svg">
<path d="M9.5801 5.2H5.7201C5.2401 5.2 4.83343 5.26 4.5001 5.38C4.16676 5.5 3.9001 5.65333 3.7001 5.84C3.51343 6.02667 3.36676 6.28 3.2601 6.6C3.15343 6.92 3.08676 7.23333 3.0601 7.54C3.03343 7.84667 3.0201 8.22667 3.0201 8.68C3.0201 9.25333 3.04676 9.72667 3.1001 10.1C3.15343 10.46 3.26676 10.82 3.4401 11.18C3.61343 11.5267 3.88676 11.7867 4.2601 11.96C4.64676 12.12 5.13343 12.2 5.7201 12.2H9.8201V14H5.1401C3.44676 14 2.26676 13.5533 1.6001 12.66C0.933431 11.7533 0.600098 10.4267 0.600098 8.68C0.600098 6.94667 0.933431 5.63333 1.6001 4.74C2.26676 3.84667 3.44676 3.4 5.1401 3.4H9.5801V5.2Z" fill="#EE0033"/>
<path d="M11.2131 14V0H13.5531V14H11.2131Z" fill="#EE0033"/>
<path d="M26.3528 8.68C26.3528 10.7333 25.9061 12.1533 25.0128 12.94C24.1328 13.7267 22.6994 14.12 20.7128 14.12C18.7261 14.12 17.2861 13.7267 16.3928 12.94C15.5128 12.1533 15.0728 10.7333 15.0728 8.68C15.0728 6.65333 15.5194 5.24667 16.4128 4.46C17.3061 3.67333 18.7394 3.28 20.7128 3.28C22.6861 3.28 24.1194 3.67333 25.0128 4.46C25.9061 5.24667 26.3528 6.65333 26.3528 8.68ZM17.4928 8.68C17.4928 10 17.7328 10.94 18.2128 11.5C18.6928 12.0467 19.5261 12.32 20.7128 12.32C21.8994 12.32 22.7328 12.0467 23.2128 11.5C23.6928 10.94 23.9328 10 23.9328 8.68C23.9328 7.37333 23.6928 6.44667 23.2128 5.9C22.7328 5.35333 21.8994 5.08 20.7128 5.08C19.5261 5.08 18.6928 5.35333 18.2128 5.9C17.7328 6.44667 17.4928 7.37333 17.4928 8.68Z" fill="#EE0033"/>
<path d="M37.6732 3.4V12.2C37.6732 13.4 37.0732 14 35.8732 14H31.9932C30.6866 14 29.6732 13.7267 28.9532 13.18C28.2332 12.6333 27.8732 11.7 27.8732 10.38V3.4H30.2132V9.76C30.2132 10.5867 30.3866 11.2 30.7332 11.6C31.0799 12 31.6466 12.2 32.4332 12.2H34.7332C35.1332 12.2 35.3332 12 35.3332 11.6V3.4H37.6732Z" fill="#EE0033"/>
<path d="M49.0338 0V12.2C49.0338 13.4 48.4338 14 47.2338 14H43.5338C41.9338 14 40.8072 13.5467 40.1539 12.64C39.5139 11.7333 39.1938 10.4133 39.1938 8.68C39.1938 6.94667 39.5139 5.63333 40.1539 4.74C40.7938 3.84667 41.9205 3.4 43.5338 3.4H46.6939V0H49.0338ZM46.6939 5.2H44.1138C43.5672 5.2 43.1205 5.28 42.7738 5.44C42.4272 5.6 42.1738 5.85333 42.0138 6.2C41.8538 6.54667 41.7472 6.90667 41.6938 7.28C41.6405 7.64 41.6138 8.10667 41.6138 8.68C41.6138 9.25333 41.6405 9.72667 41.6938 10.1C41.7472 10.46 41.8538 10.82 42.0138 11.18C42.1738 11.5267 42.4272 11.7867 42.7738 11.96C43.1205 12.12 43.5672 12.2 44.1138 12.2H46.0938C46.4939 12.2 46.6939 12 46.6939 11.6V5.2Z" fill="#EE0033"/>
</svg>
